<svg width="22" height="24" viewBox="0 0 22 24" fill="none" xmlns="http://www.w3.org/2000/svg">
<path d="M10.2281 12.5934C6.75666 12.5934 3.93135 9.76814 3.93135 6.29672C3.93135 2.82531 6.75666 0 10.2281 0C13.6995 0 16.5248 2.82531 16.5248 6.29672C16.5248 9.76814 13.6995 12.5934 10.2281 12.5934ZM10.2281 1.64262C8.99462 1.64552 7.81251 2.13679 6.94032 3.00897C6.06813 3.88116 5.57686 5.06327 5.57397 6.29672C5.57686 7.53018 6.06813 8.71229 6.94032 9.58448C7.81251 10.4567 8.99462 10.9479 10.2281 10.9508C11.4615 10.9479 12.6436 10.4567 13.5158 9.58448C14.388 8.71229 14.8793 7.53018 14.8822 6.29672C14.8793 5.06327 14.388 3.88116 13.5158 3.00897C12.6436 2.13679 11.4615 1.64552 10.2281 1.64262ZM0.821312 23.5443C0.372328 23.5443 0 23.1719 0 22.723C0 18.047 4.5884 14.2361 10.2281 14.2361C11.3341 14.2361 12.4182 14.3784 13.4695 14.6741C13.9075 14.7946 14.1594 15.2435 14.039 15.6816C13.9185 16.1196 13.4695 16.3715 13.0315 16.251C12.1335 15.9992 11.1917 15.8787 10.2281 15.8787C5.49731 15.8787 1.64262 18.9449 1.64262 22.723C1.64262 23.1719 1.2703 23.5443 0.821312 23.5443Z" fill="#DCDCDC"/>
<path d="M16.7983 23.5442C15.5136 23.5442 14.2754 23.0638 13.3269 22.1973C12.9436 21.8688 12.6042 21.4636 12.3413 21.0146C11.8595 20.2261 11.5967 19.2953 11.5967 18.3426C11.5967 16.9738 12.1223 15.6925 13.0641 14.7179C14.0497 13.6995 15.3747 13.141 16.7983 13.141C18.2876 13.141 19.7003 13.7761 20.664 14.8712C21.5228 15.8236 21.9988 17.0602 22 18.3426C22 18.7587 21.9452 19.1749 21.8357 19.5691C21.7262 20.0619 21.5181 20.5766 21.2334 21.0256C20.3245 22.5806 18.6162 23.5442 16.7983 23.5442ZM16.7983 14.7836C16.1683 14.7821 15.5492 14.9483 15.0046 15.2652C14.4601 15.5821 14.0097 16.0382 13.6998 16.5868C13.3898 17.1353 13.2315 17.7565 13.241 18.3864C13.2505 19.0164 13.4276 19.6325 13.754 20.1714C13.9292 20.478 14.1592 20.7518 14.422 20.9818C15.079 21.584 15.9223 21.9126 16.7983 21.9126C18.0358 21.9126 19.2075 21.2555 19.8427 20.1933C20.0288 19.8867 20.1712 19.5362 20.2478 19.1968C20.3245 18.912 20.3573 18.6383 20.3573 18.3536C20.3573 17.4775 20.0288 16.6343 19.4375 15.9772C18.7804 15.2107 17.8167 14.7836 16.7983 14.7836Z" fill="#DCDCDC"/>
<path d="M18.4386 19.142H15.1643C14.7153 19.142 14.343 18.7697 14.343 18.3207C14.343 17.8717 14.7153 17.4994 15.1643 17.4994H18.4386C18.8876 17.4994 19.2599 17.8717 19.2599 18.3207C19.2599 18.7697 18.8876 19.142 18.4386 19.142Z" fill="#DCDCDC"/>
<path d="M16.7984 20.8176C16.3494 20.8176 15.9771 20.4453 15.9771 19.9963V16.722C15.9771 16.273 16.3494 15.9007 16.7984 15.9007C17.2473 15.9007 17.6197 16.273 17.6197 16.722V19.9963C17.6197 20.4562 17.2473 20.8176 16.7984 20.8176Z" fill="#DCDCDC"/>
</svg>
