<svg width="42" height="41" viewBox="0 0 42 41" fill="none" xmlns="http://www.w3.org/2000/svg">
<ellipse cx="21" cy="20.5" rx="21" ry="20.5" fill="#24776C"/>
<path d="M14.5 29.25C14.2521 29.25 14.0443 29.1661 13.8766 28.9984C13.7089 28.8307 13.625 28.6229 13.625 28.375V23.5843C13.625 23.2234 13.7535 22.9144 14.0105 22.6574C14.2676 22.4003 14.5766 22.2718 14.9375 22.2718H28.0625C28.4234 22.2718 28.7324 22.4003 28.9895 22.6574C29.2465 22.9144 29.375 23.2234 29.375 23.5843V28.375C29.375 28.6229 29.2911 28.8307 29.1234 28.9984C28.9557 29.1661 28.7479 29.25 28.5 29.25H14.5ZM15.5281 20.9593V18.2906C15.5281 17.9296 15.6566 17.6207 15.9137 17.3636C16.1707 17.1066 16.4797 16.9781 16.8406 16.9781H20.8437V15.5781C20.5521 15.3739 20.3297 15.1513 20.1766 14.9101C20.0234 14.669 19.9469 14.3783 19.9469 14.0378C19.9469 13.8251 19.987 13.6203 20.0672 13.4234C20.1474 13.2265 20.2604 13.0552 20.4062 12.9093L21.2594 12.0125C21.274 11.9979 21.3563 11.9614 21.5063 11.9031C21.5313 11.9031 21.6094 11.9395 21.7406 12.0125L22.5937 12.9093C22.7396 13.0552 22.8562 13.2265 22.9437 13.4234C23.0312 13.6203 23.075 13.8251 23.075 14.0378C23.075 14.3783 22.9948 14.669 22.8344 14.9101C22.674 15.1513 22.4479 15.3739 22.1562 15.5781V16.9781H26.1594C26.5203 16.9781 26.8293 17.1066 27.0863 17.3636C27.3434 17.6207 27.4719 17.9296 27.4719 18.2906V20.9593H15.5281Z" fill="#DCDCDC"/>
</svg>
