<svg width="36" height="9" viewBox="0 0 36 9" fill="none" xmlns="http://www.w3.org/2000/svg">
<g clip-path="url(#clip0_132_5)">
<path fill-rule="evenodd" clip-rule="evenodd" d="M36 4.5C36 6.98494 34.0348 9.0003 31.6116 9.0003C29.1885 9.0003 27.2241 6.98494 27.2241 4.5C27.2244 2.01536 29.1888 0 31.6116 0C34.0345 0 36 2.01536 36 4.5ZM8.77559 4.5C8.77559 6.98494 6.81035 9.0003 4.38721 9.0003C1.96406 9.0003 0 6.98464 0 4.5C0 2.01536 1.96436 0 4.3875 0C6.81064 0 8.77559 2.01536 8.77559 4.5ZM22.3878 4.5C22.3878 6.98494 20.4226 9.0003 17.9994 9.0003C15.5766 9.0003 13.6113 6.98494 13.6113 4.5C13.6113 2.01536 15.5766 0 17.9994 0C20.4226 0 22.3878 2.01536 22.3878 4.5Z" fill="#DCDCDC"/>
</g>
<defs>
<clipPath id="clip0_132_5">
<rect width="36" height="9" fill="white"/>
</clipPath>
</defs>
</svg>
