<svg width="187" height="187" viewBox="0 0 187 187" fill="none" xmlns="http://www.w3.org/2000/svg">
<path d="M37.6403 108.336L38.6652 108.017C38.6652 108.017 41.4855 109.325 45.556 108.177C45.556 108.177 56.1539 140.334 89.0379 143.038C89.0379 143.038 87.0536 146.49 81.7183 147.057C76.383 147.624 65.4362 146.832 65.4362 146.832C65.4362 146.832 69.6375 150.234 74.6603 150.408C79.683 150.583 87.199 151.23 95.0274 147.145C102.856 143.06 104.019 142.122 104.019 142.122C104.019 142.122 105.633 146.149 102.631 149.471C99.6213 152.792 94.2061 155.286 90.3754 156.34C86.5448 157.394 75.0019 157.619 75.0019 157.619C75.0019 157.619 77.3279 160.258 91.0878 158.586C91.0878 158.586 100.864 157.277 104.462 152.8C104.462 152.8 106.439 158.317 101.097 161.668C95.7543 165.019 79.2542 168.457 75.1836 167.395C75.1836 167.395 91.6475 170.696 103.168 165.593C103.168 165.593 104.15 171.219 96.6557 173.908C89.1615 176.598 72.814 176.474 72.814 176.474C72.814 176.474 81.8636 179.44 90.1428 178.371C98.422 177.303 98.4874 177.368 98.4874 177.368C98.4874 177.368 99.3669 178.706 97.07 181.7C94.773 184.695 90.201 185.008 90.201 185.008L83.5936 185.589C83.5936 185.589 76.8482 185.662 69.4776 183.205C62.1071 180.748 48.6743 177.376 34.8636 165.571C21.0529 153.766 13.9222 143.198 9.16112 133.487C4.40006 123.761 -0.775326 101.758 0.0969301 93.6681C0.0969301 93.6681 6.60251 104.026 12.6865 102.223C12.6865 102.223 18.865 108.118 24.5637 106.592L25.4214 106.214C25.4214 106.214 29.3175 110.016 37.7784 108.307" fill="#24776C"/>
<path d="M108.765 148.569L108.438 147.544C108.438 147.544 109.725 144.71 108.555 140.654C108.555 140.654 140.639 129.83 143.118 96.9318C143.118 96.9318 146.585 98.8944 147.188 104.222C147.792 109.55 147.072 120.512 147.072 120.512C147.072 120.512 150.445 116.289 150.583 111.266C150.721 106.243 151.317 98.7199 147.181 90.9205C143.045 83.1211 142.1 81.9653 142.1 81.9653C142.1 81.9653 146.12 80.3226 149.456 83.3028C152.793 86.283 155.329 91.691 156.405 95.5144C157.481 99.3378 157.786 110.881 157.786 110.881C157.786 110.881 160.41 108.533 158.637 94.7875C158.637 94.7875 157.263 85.0182 152.756 81.4565C152.756 81.4565 158.259 79.4431 161.646 84.7638C165.033 90.0846 168.58 106.556 167.548 110.633C167.548 110.633 170.732 94.1478 165.549 82.6631C165.549 82.6631 171.168 81.6455 173.908 89.1178C176.649 96.5902 176.642 112.938 176.642 112.938C176.642 112.938 179.542 103.873 178.415 95.5943C177.288 87.3152 177.354 87.257 177.354 87.257C177.354 87.257 178.684 86.3702 181.693 88.6454C184.703 90.9205 185.044 95.4926 185.044 95.4926L185.677 102.093C185.677 102.093 185.8 108.838 183.394 116.223C180.988 123.608 177.71 137.07 166 150.954C154.29 164.837 143.772 172.055 134.097 176.881C124.422 181.708 102.456 187.029 94.3587 186.214C94.3587 186.214 104.673 179.636 102.827 173.567C102.827 173.567 108.678 167.352 107.115 161.653L106.73 160.803C106.73 160.803 110.503 156.878 108.736 148.431" fill="#2A9D8F"/>
<path d="M79.2905 37.7783L79.6321 38.7959C79.6321 38.7959 78.3383 41.6307 79.5449 45.6867C79.5449 45.6867 46.9734 56.6408 44.5893 89.5539C44.5893 89.5539 41.0566 87.6059 40.4242 82.2779C39.7919 76.9498 40.4751 65.9885 40.4751 65.9885C40.4751 65.9885 37.0588 70.2262 36.9425 75.2489C36.8262 80.2717 36.2447 87.7949 40.4824 95.5798C44.7201 103.365 45.6869 104.52 45.6869 104.52C45.6869 104.52 41.6091 106.185 38.2 103.212C34.7909 100.239 32.196 94.8529 31.0911 91.0295C29.979 87.2134 29.6228 75.6705 29.6228 75.6705C29.6228 75.6705 26.9697 78.0256 28.816 91.7636C28.816 91.7636 30.2479 101.526 34.8418 105.073C34.8418 105.073 29.2521 107.108 25.7922 101.802C22.3322 96.4957 18.6542 80.0391 19.6936 75.954C19.6936 75.954 16.5172 92.4542 21.8307 103.917C21.8307 103.917 16.1246 104.957 13.3116 97.4987C10.4986 90.041 10.4404 73.6861 10.4404 73.6861C10.4404 73.6861 7.52566 82.7649 8.7032 91.0368C9.88075 99.3087 9.81533 99.3741 9.81533 99.3741C9.81533 99.3741 8.46333 100.268 5.3959 98.0003C2.32847 95.7324 1.96503 91.1676 1.96503 91.1676L1.2963 84.5675C1.2963 84.5675 1.15092 77.8221 3.56416 70.4225C5.9774 63.0228 9.2629 49.5537 21.111 35.6194C32.9592 21.6852 43.6225 14.4309 53.4427 9.56081C63.2555 4.71252 85.5562 -0.702738 93.7845 0.0750237C93.7845 0.0750237 83.3247 6.6969 85.2291 12.7591C85.2291 12.7591 79.305 19.003 80.9115 24.6872L81.304 25.5376C81.304 25.5376 77.4806 29.4773 79.3123 37.9164" fill="#2A9D8F"/>
<path d="M149.187 77.9529L148.155 78.2582C148.155 78.2582 145.357 76.9062 141.272 77.9893C141.272 77.9893 131.175 45.6649 98.342 42.4521C98.342 42.4521 100.377 39.0285 105.72 38.5488C111.062 38.069 122.002 39.0285 122.002 39.0285C122.002 39.0285 117.859 35.5613 112.836 35.3069C107.821 35.0598 100.312 34.2893 92.418 38.2508C84.524 42.2122 83.3465 43.1281 83.3465 43.1281C83.3465 43.1281 81.791 39.0721 84.8511 35.8012C87.9113 32.5302 93.3702 30.117 97.2154 29.1284C101.061 28.1399 112.611 28.0962 112.611 28.0962C112.611 28.0962 110.328 25.4213 96.5394 26.8824C96.5394 26.8824 86.741 28.0308 83.0775 32.4575C83.0775 32.4575 81.1877 26.9114 86.5811 23.6405C91.9746 20.3768 108.526 17.2003 112.582 18.3197C112.582 18.3197 96.1687 14.7653 84.5677 19.6862C84.5677 19.6862 83.6809 14.0457 91.2041 11.4725C98.7345 8.89934 115.082 9.27732 115.082 9.27732C115.082 9.27732 106.083 6.17354 97.7823 7.11122C89.4814 8.04889 89.4232 7.98348 89.4232 7.98348C89.4232 7.98348 88.5655 6.63148 90.9133 3.67308C93.2611 0.714677 97.8332 0.474807 97.8332 0.474807L104.455 0.00233459C104.455 0.00233459 111.201 0.0314098 118.535 2.60456C125.869 5.17772 139.251 8.76124 152.865 20.7766C166.48 32.7992 173.458 43.477 178.066 53.2608C182.675 63.0446 187.501 85.1272 186.498 93.1956C186.498 93.1956 180.152 82.7358 174.047 84.444C174.047 84.444 167.963 78.4545 162.235 79.8864L161.377 80.2499C161.377 80.2499 157.539 76.3901 149.056 77.9675" fill="#24776C"/>
</svg>
