<svg width="42" height="41" viewBox="0 0 42 41" fill="none" xmlns="http://www.w3.org/2000/svg">
<ellipse cx="21" cy="20.5" rx="21" ry="20.5" fill="#24776C"/>
<path d="M21.8281 29.25L23.2719 27.9375C25.0365 26.3333 26.2031 25.1229 26.7719 24.3062C27.3406 23.4896 27.625 22.6219 27.625 21.7031C27.625 21.3094 27.563 20.9484 27.4391 20.6203C27.3151 20.2922 27.151 19.9604 26.9469 19.625H28.9375C29.3021 19.625 29.612 19.7526 29.8672 20.0078C30.1224 20.263 30.25 20.5729 30.25 20.9375V28.5937C30.25 28.7833 30.188 28.9401 30.0641 29.0641C29.9401 29.188 29.7833 29.25 29.5937 29.25H21.8281ZM12.75 28.5937V20.9375C12.75 20.5729 12.874 20.263 13.1219 20.0078C13.3698 19.7526 13.6833 19.625 14.0625 19.625H16.0531C15.8344 19.9312 15.6667 20.2594 15.55 20.6094C15.4333 20.9594 15.375 21.324 15.375 21.7031C15.375 22.6219 15.6521 23.4823 16.2062 24.2844C16.7604 25.0865 17.9344 26.3042 19.7281 27.9375L21.1719 29.25H13.4062C13.2167 29.25 13.0599 29.188 12.9359 29.0641C12.812 28.9401 12.75 28.7833 12.75 28.5937ZM27.625 18.75C26.8812 18.75 26.2578 18.4984 25.7547 17.9953C25.2516 17.4922 25 16.8687 25 16.125C25 15.3958 25.2516 14.776 25.7547 14.2656C26.2578 13.7552 26.8812 13.5 27.625 13.5C28.3542 13.5 28.974 13.7552 29.4844 14.2656C29.9948 14.776 30.25 15.3958 30.25 16.125C30.25 16.8687 29.9948 17.4922 29.4844 17.9953C28.974 18.4984 28.3542 18.75 27.625 18.75ZM21.5 17.875C20.6396 17.875 19.9141 17.5797 19.3234 16.9891C18.7328 16.3984 18.4375 15.6729 18.4375 14.8125C18.4375 13.9667 18.7328 13.2448 19.3234 12.6469C19.9141 12.049 20.6396 11.75 21.5 11.75C22.3458 11.75 23.0677 12.049 23.6656 12.6469C24.2635 13.2448 24.5625 13.9667 24.5625 14.8125C24.5625 15.6729 24.2635 16.3984 23.6656 16.9891C23.0677 17.5797 22.3458 17.875 21.5 17.875ZM16.6875 21.7031C16.6875 22.374 17.012 23.1214 17.6609 23.9453C18.3099 24.7693 19.5896 26.049 21.5 27.7844C23.3812 26.0781 24.6536 24.813 25.3172 23.9891C25.9807 23.1651 26.3125 22.4031 26.3125 21.7031C26.3125 21.0031 26.0755 20.4089 25.6016 19.9203C25.1276 19.4318 24.5479 19.1875 23.8625 19.1875C23.4687 19.1875 23.1078 19.2714 22.7797 19.4391C22.4516 19.6068 22.1562 19.8146 21.8937 20.0625L21.5 20.4562L21.0844 20.0625C20.8219 19.8292 20.5266 19.625 20.1984 19.45C19.8703 19.275 19.5167 19.1875 19.1375 19.1875C18.4375 19.1875 17.8542 19.4318 17.3875 19.9203C16.9208 20.4089 16.6875 21.0031 16.6875 21.7031ZM15.375 18.75C14.6312 18.75 14.0078 18.4984 13.5047 17.9953C13.0016 17.4922 12.75 16.8687 12.75 16.125C12.75 15.3958 13.0016 14.776 13.5047 14.2656C14.0078 13.7552 14.6312 13.5 15.375 13.5C16.1042 13.5 16.724 13.7552 17.2344 14.2656C17.7448 14.776 18 15.3958 18 16.125C18 16.8687 17.7448 17.4922 17.2344 17.9953C16.724 18.4984 16.1042 18.75 15.375 18.75Z" fill="#DCDCDC"/>
</svg>
